<svg xmlns="http://www.w3.org/2000/svg" id="Layer_1" data-name="Layer 1" viewBox="0 0 1215.41 894.32">
  <defs>
    <style>
      .cls-1,.cls-22{fill:none}.cls-22{stroke-linecap:round;stroke-linejoin:round}.cls-3{fill:#0b2200}.cls-19,.cls-21{stroke-miterlimit:10}.cls-5{fill:#b9956e}.cls-6{fill:#e2b207}.cls-9{fill:#a24a22}.cls-11,.cls-19,.cls-21{fill:#144ced}.cls-13{fill:#a20d00}.cls-22{stroke:#0b2200}.cls-16{fill:#016835}.cls-17{fill:#d6d6d6}.cls-19,.cls-21{stroke:#144ced}.cls-19{stroke-width:3.21px}.cls-21{stroke-width:2.83px}.cls-22{stroke-width:4.99px}
    </style>
    <clipPath id="clip-path" transform="translate(-44.39 -72.44)">
      <path d="M876.45 431.19s38.59 20 85.17-8.87-4.44-62.54-4.44-62.54l-40.36-20.41-30.17 4.88-16 27.95 1.35 34.6z" class="cls-1"/>
    </clipPath>
    <clipPath id="clip-path-2" transform="translate(-44.39 -72.44)">
      <path d="M415.56 495.07s37.26-28.83 98.92-39.48c6.21 24-1.33 34.6-1.33 34.6l-6.65 15.08s-20.85 7.1-26.17 5.77-23.51-2.22-38.15-9.32-26.62-6.65-26.62-6.65z" class="cls-1"/>
    </clipPath>
    <radialGradient id="radial-gradient" cx="514.48" cy="455.59" r="0" gradientUnits="userSpaceOnUse">
      <stop offset="0" stop-color="#016835"/>
      <stop offset="1"/>
    </radialGradient>
  </defs>
  <path fill="#d3d3d3" stroke="#d3d3d3" stroke-linecap="round" stroke-linejoin="round" stroke-width="39.61" d="M750.96 325.39c-24-5.63-26.7-22.31-29.51-40-.25-1.56-.49-3.06-.74-4.54a434.22 434.22 0 0 0-3.1-53.49c-4.9-39.85-15.06-65.86-30.19-77.32a8.89 8.89 0 0 0-1.4-.88c-.77-.59-2.53-2.17-4.1-3.59-1.07-1-2.28-2-3.62-3.23a18.08 18.08 0 0 0 7.15-4.12c6.85-6.47 7.46-17.1 1.79-31.6-9.06-23.21-19.35-45.27-45.31-60a103.58 103.58 0 0 0-15.21-7c-14.59-5.39-32-8.5-52.8-9.39l15.39-10.43-36.22 3.11c-52.72 4.53-78.59 12.72-86.49 27.39-12.6 23.41 5.59 47.88 6.37 48.91l1.71 2.27 20.8 7.28-13.41-13c-33.46 26.34-15.46 62.12-15.46 64.72a9.53 9.53 0 0 0 1.12 4.5l1.26 2.37-12.27 24.39a9.45 9.45 0 0 0 1.41 10.54 39.59 39.59 0 0 0 8.58 6.87 20.44 20.44 0 0 0 3.1 11.41 19.94 19.94 0 0 0-2.71 5.82c-2.28 8.22-1.76 12.78-.93 15.16a9.37 9.37 0 0 0 8.46 6.3 29 29 0 0 1 9.4 2.38c4.16 1.94 5.85 4.37 6.53 6.68-4.44 6-8.87 12.19-10.16 14-2.76 3.17-4.92 9-.54 16.72l.48.84c1.84 3.33 5.63 10.15 12.57 14-11.57 14.75-25.49 39.66-21 70.58 0 .15.05.31.08.46.27 1.36.56 3 .87 4.73 3.2 18.05 9.15 51.66 36.42 61.44a9.43 9.43 0 0 0 12-12.24c-.18-.48-17.77-47.55 5.08-75 6.57-6.13 17.85-12.19 29.77-18.6 12.13-6.53 25.25-13.58 36.48-22.27-1.24 24.08-.74 56 15.7 74.08 7.7 8.46 17.9 12.91 30.33 13.24h.31a143.65 143.65 0 0 0 33.92-4.92c14.83-4 24.2-9.42 28.61-16.42l2.28-.69a151 151 0 0 0 33.19-14.89c14.16-8.78 21.33-18 21.31-27.41a9.43 9.43 0 0 0-7.3-9.16z"/>
  <path d="M729.16 170.73l-.42-.57c-8.38-19.87-19.1-38.27-41.72-51.15a103.46 103.46 0 0 0-15.2-7c-14.59-5.39-32-8.5-52.81-9.39l15.36-10.35-36.23 3.11c-52.72 4.53-78.58 12.72-86.48 27.39-9.56 17.76-1.4 36.13 3.43 44.41-17.94 37.36 1.37 67.55 2.21 68.82l7 10.67 1.61-12.67c1.36-10.56 24-32.65 38-44.1l2.38-1.95c11.15-.91 21-1.44 29.87-1.66l12 1.09 71.23 19.32q2.13 1.56 4.3 3.18c5.14 3.82 10.45 7.76 16.93 11.81 20 12.48 24.32 22.07 24.93 27.14q-.4 2.7-.84 5.49l-4 25 12.72-21.89a15.74 15.74 0 0 0 1.62-8.48c5.6-39.35 3.68-64.95-5.89-78.22z" class="cls-3" transform="translate(-44.39 -72.44)"/>
  <path fill="none" stroke="#d3d3d3" stroke-miterlimit="10" stroke-width="39.61" d="M82.93 791.46l-13.5-155.23-5.91 6.75s-16.59-8.15-23.34-24.42c-8.43-9-14.06-20.25-13.49-32.62-5.07-9.56-8.44-20.25-5.63-31.49-2.25-10.69-2.81-23.62 10.12-37.12 14.06 1.12 39.37 1.12 54-3.94-2.81-20.25-3.93-32.06-3.93-32.06s32.62-9.56 55.68 10.69l-1.13 6.75s103.43-74.61 182.81-72.59v12.38l9.56-.56s76.44-70.87 128.19-67.5c4.5-16.87 6.18-40.49 78.17-60.17 19.68-16.31 23.08-19.69 23.08-19.69l116.41-81.55s84.36-42.74 120.36-44.42l3.93 24.74s318-11.25 388.06 227.77c0 0 71.7 251.11-183.91 321.13-11.85 4.25-101.25 13.5-259.85-6.75s-285.14-11.81-345.88 14.34-178.82 83.72-207.43 104.35c6.75-41.34 16.79-77.35 16.79-77.35z"/>
  <path d="M128.29 861.38l-13.47-154.93-5.89 6.74s-16.56-8.14-23.3-24.42c-8.42-9-14-20.21-13.47-32.56-5-9.54-8.42-20.21-5.61-31.44-2.25-10.66-2.81-23.57 10.1-37 14 1.12 39.29 1.12 53.89-3.93-2.81-20.21-3.93-32-3.93-32s32.56-9.54 55.57 10.66l-1.12 6.74s103.24-74.47 182.44-72.45v12.35l9.54-.56s76.35-70.73 128-67.37c4.49-16.84-9.84-32.26 36.94-66.31 19.64-16.28 64.1-13.4 64.1-13.4l116.2-81.39s84.2-42.67 120.13-44.35l3.93 24.7s317.44-11.23 387.33 227.35c0 0 71.57 250.64-183.56 320.52-11.79 4.22-101 13.48-259.35-6.73s-284.6-11.79-345.22 14.31-201.25 98.52-213 117.89c6.74-41.26 22.74-90.94 22.74-90.94z" class="cls-3" transform="translate(-44.39 -72.44)"/>
  <path d="M703.11 409.11s12.35-98.79 115.64-80.27c14 3.93 46 17.4 62.31 31.44 0 0-.56-10.67-13.47-22.46 38.17 8.42 61.75 7.3 121.25 61.75l-3.37-13.47s18.53 4.49 28.07 1.68c4.49 8.42 9 17.4 3.93 27.51l7.3 9.54s-32 32.56-34.81 79.71c-6.17-21.89-14.59-18-6.73-63.43-9 20.77-12.91 26.38-12.91 37.05-3.93-21.33-5.06-34.8-.57-61.19-22.45 15.16-60.06 36.49-117.88 2.81 24.14-14.6 34.8-21.89 36.49-36.49-16.28-15.72-32.56-33.68-88.13-33.12 46.59 20.21 61.75 32.56 62.87 37.05-9 6.74-42.66 39.86-96 11.23-25.25 4.49-63.99 10.66-63.99 10.66z" class="cls-5" transform="translate(-44.39 -72.44)"/>
  <path d="M1013.54 490.51s11.23-22.46 16.84-24.14c6.17 18.52 28.21 83.78 21.47 124.76a56.59 56.59 0 0 0-17.54-2.39s-18.53-94.86-20.77-98.23z" class="cls-6" transform="translate(-44.39 -72.44)"/>
  <path fill="#876608" d="M996.14 534.85l17.4-44.34s23 76.34 20.77 98.23H1013s-6.2-34.24-16.86-53.89z" transform="translate(-44.39 -72.44)"/>
  <path d="M1019.15 604.32l25.68-3s6.32 84.21-12.63 82.1c-.84-12.63-5.47-25.26-8.84-28.63-1.26 16.42-5.89 43.37-9.26 40.84S984.63 686 979.58 686l5.47-14.32 19.79 3-6.74-18.1-31.1 7.1-4.63-10.52s12.21-16.84 32.83-17.26c17.26-.36 28.58-23.16 23.95-31.58zM709.29 329s18.94-39.15 46.73-39.57 50.1 10.52 61.47 22.31c-35.79-4.65-68.21-6.34-108.2 17.26zM519.14 453.53s-68.77 8.07-124.35 58.17l34.53 10.95s-66.52-2.53-66.52-1.27-1.69 35.62-1.69 35.62l120.1-20.3s31.94-5.32 44.58-6.65c-15.96-21.96-6.65-76.52-6.65-76.52z" class="cls-5" transform="translate(-44.39 -72.44)"/>
  <path fill="#dfa061" d="M520.26 441.39s13.89-24.84 35.78-29.05c-5.47 17.26-8 25.26-8 25.26z" transform="translate(-44.39 -72.44)"/>
  <path d="M330.66 559.92l.28-32.92s-62 20.29-117.32 52.85c101.88-17.69 117.04-19.93 117.04-19.93z" class="cls-6" transform="translate(-44.39 -72.44)"/>
  <path d="M152.71 595.76l11.23-25s-14.88-5.89-20.77-4.77c-3.37 11-3.93 12.07-3.93 12.07l13.47 6.73-13.19-.28-1.12 7.3zM88.72 604.74c1.4-.28 27.51 5.34 27.51 5.34l.28 13.75-8.14.28-5.06-11-2 12.35s-12.91.84-12.91 0 .32-20.72.32-20.72z" class="cls-5" transform="translate(-44.39 -72.44)"/>
  <path d="M40.12 560.65l27.5-1.68 3.37 12.63-7.58 2.81-6.45-10.11-.56 12.07-12.07 1.97-4.21-17.69zM43.77 587.88l24.98-8.98 7.57 13.19-7.57 3.37-9.55-8.7 4.49 12.07-10.38 5.89-9.54-16.84zM53.03 612.02l18.8-8.7 6.18 8.98-5.06 3.37-7.29-5.9 4.21 10.11-7.3 5.61-9.54-13.47z" class="cls-5"/>
  <path d="M532.81 162.93s-20-37.16 1-44.75 53.71-8.76 53.71-8.76-72.67 10.42-37.93 46.74c33.49 35.03-16.78 6.77-16.78 6.77z" class="cls-9" transform="translate(-44.39 -72.44)"/>
  <path d="M556.26 154.18s-21.15-17 7.79-31.35c35.53-17.55 74.93-10.31 123.64 17C586 107.53 565.61 151.69 580 154.11s-23.74.07-23.74.07z" class="cls-9" transform="translate(-44.39 -72.44)"/>
  <path d="M629.3 134.68s77.48.8 88.79 40.39c12.4 43.39-28.18 2.44-28.18 2.44s-3.43-35.38-60.61-42.83z" class="cls-9" transform="translate(-44.39 -72.44)"/>
  <path d="M585.68 151.11s11.31-24 54.56-8.65c38.79 13.73 37.26 26.62 37.26 26.62s-48.24-28-61.88-14.31c-11.13 11.13-29.94-3.66-29.94-3.66z" class="cls-9" transform="translate(-44.39 -72.44)"/>
  <path d="M796 397.83c-24-5.63-26.69-22.31-29.5-40-.25-1.56-.49-3.06-.74-4.54a434.39 434.39 0 0 0-3.06-53.52c-4.9-39.85-15.06-65.86-30.2-77.32a8.45 8.45 0 0 0-1.4-.88c-.77-.59-2.53-2.17-4.09-3.59-18.08-16.29-73.1-65.87-169.42-43.72a9.26 9.26 0 0 0-3.3 1.47c-41.28 29-42.61 54.36-42.62 57.16a9.4 9.4 0 0 0 1.11 4.5l1.27 2.37-12.27 24.39a9.43 9.43 0 0 0 1.4 10.54 40.08 40.08 0 0 0 8.59 6.87 20.37 20.37 0 0 0 3.09 11.4 19.94 19.94 0 0 0-2.71 5.82c-2.28 8.22-1.77 12.78-.93 15.16a9.44 9.44 0 0 0 8.51 6.3 29.13 29.13 0 0 1 9 2.22c4.42 1.95 6.2 4.46 6.9 6.84-4.45 6-8.87 12.19-10.17 14-2.76 3.17-4.92 9-.53 16.72.15.26.31.54.47.84 1.85 3.33 5.63 10.15 12.58 14-11.57 14.75-25.5 39.66-21 70.58 0 .15 0 .31.08.46.26 1.36.55 3 .86 4.73 3.2 18.05 9.15 51.66 36.42 61.44a9.43 9.43 0 0 0 12-12.23c-.18-.47-17.66-47.69 5.07-75 6.58-6.13 17.85-12.19 29.77-18.6 12.14-6.53 25.25-13.58 36.49-22.27-1.24 24.08-.74 56 15.69 74.08 7.7 8.46 17.91 12.91 30.33 13.24h.31a143.57 143.57 0 0 0 33.91-4.92c14.83-4 24.2-9.42 28.62-16.42l2.28-.69A151 151 0 0 0 782 434.4c14.16-8.78 21.32-18 21.3-27.41a9.43 9.43 0 0 0-7.3-9.16z" class="cls-3" transform="translate(-44.39 -72.44)"/>
  <path d="M520.39 262.69l14.82-30.19s4.09-5.83 15.23-2.49c7.37 2.22 11.52 3.74 10.88 1.83s-8.83-6-8.83-6-2.62-2.5-.4-3.69 17.57 1.26 21.52 5.45a74.13 74.13 0 0 1 15.58-18.94c-3.2 1.16-7.6 2.84-16.42 12.1l-.24-4s10.86-9.21 7.49-12.46l-6.48 8.51-2.67-6.29 7.25-4.49s12.9 3.22 20.09-6.83a53.88 53.88 0 0 1 10.69 4.58s4.54 5.12-2.81 12.35a65.85 65.85 0 0 1-15.33 11.15l7.69 6.08s17.43-9.94 26.56 1.09c-2.11 1.72-12 12.63 4.92 32.57-4.6-1.58-33.7-9.85-48.92-28.39-3.59.65-14.4 0-28.8 19.45 14.33-8.62 20-13.9 25.48-9.71s5.84 4.69 5.84 4.69-4.11 11.1-21.48 13.18c-7.19 1-14.09.75-23.79-2-2.89 3.44-4.42 7.41-8.55 7.75 0 .01-7.48 2.1-9.32-5.3z" class="cls-5" transform="translate(-44.39 -72.44)"/>
  <path fill="#7f3916" d="M561 383.08c20.08-25 20.71-24.18 20.71-24.18s27-24.73 26.16-53.83c6 6.53 7.11 6.82 7.11 6.82s3.38 15.35-9.7 30.25c9.92-11.54 22.41-27.46 7.88-46.22-6.75-6.67-11.64-11.68-19.95-14.9 5.41-4 8.45-6.5 14.28-6.49-6.79-1.19-8.26-2.16-18.87 3.58s-9.56 5.69-35 8.77c0 0-7.48 7.17-14.13 1.13-5.6-5.09-2.74-8.61-2.74-8.61l4.64-5.22 31.16-1.83-13.37-2s24.13-7.25 28.84-14.24c16.6 3 51.65 10.12 53.28 37.84 2.8 47.68-80.3 89.13-80.3 89.13z" transform="translate(-44.39 -72.44)"/>
  <path d="M534.23 298.27s17.84-3 28 9.93l2.29-3.23s11.77 3.55 11.19 13.12l4.22-1.84-2.71-20.6s11.7 6.74 14.43 14.17c1 1.53 3.14 3.79-.16 10.7s-17.75 36.2-17.75 36.2l-23.36.75s-4.39.44-8.66-10.62a70.75 70.75 0 0 1 24.82-24.07c-7.52-6.18-12.39-10.84-30.64-13.3 0 0-7 .5-5.38-4.36s3.71-6.85 3.71-6.85zM548.84 214.85l20-20.72a7 7 0 0 1 6.92-.41c4.11 1.76 3.62 1.44 3.62 1.44s-23.65 20.7-30.54 19.69z" class="cls-5" transform="translate(-44.39 -72.44)"/>
  <path d="M627.32 189.64s10.52 10.68 11.11 40.56 6.21 33.55 6.21 33.55 14.03-49.81-17.32-74.11z" class="cls-9" transform="translate(-44.39 -72.44)"/>
  <path d="M648 213.39s11.37 37-1.08 61.53c5.1 21.37 7.93 38.21-33.33 94.11-13.3 18-12.64 54.56 6.66 93.81-9.32-46.57-11.08-59 9.31-87.16 24.62-33.93 32.39-43.34 36.76-77.17s-1.43-76.93-18.32-85.12z" class="cls-9" transform="translate(-44.39 -72.44)"/>
  <path d="M668 237.55s15.31 49.46 8.88 86.23c-5.12 20.73-31.28 111.78 14.65 124.49 5.74 1.43 31.53 1.35 32.59-4.72-11.19-3.94-45.2-13.59-34.6-86.5C700.79 279.2 668 237.55 668 237.55z" class="cls-9" transform="translate(-44.39 -72.44)"/>
  <path d="M638.45 192.53s67 30.78 64.34 169.84c0 29.28 4.77 71.65 28 74.05 13.85 1.43 17.4-5.5 17.4-5.5s-35.41-12-27.43-80.52c11.7-100.47-51.88-151.65-82.31-157.87z" class="cls-9" transform="translate(-44.39 -72.44)"/>
  <path d="M583.88 232.24s27.3 23.59 37.49 24.64c-5.34-10.76-7.76-11.79-5-16.2-12.66-3.68-12.47 3.57-32.49-8.44zM619.93 232.41s-9-5.48-20.9 2.11c8.88-.08 12.29-.55 19 3.08 2.97-8.13 1.9-5.19 1.9-5.19z" class="cls-11" transform="translate(-44.39 -72.44)"/>
  <path d="M734.06 309.14s-10.34 125.67 37 113c6.2-3.19 11.82-9.18 11.82-9.18s-39.51 9.3-48.82-103.82z" class="cls-9" transform="translate(-44.39 -72.44)"/>
  <ellipse cx="521.9" cy="197.38" class="cls-6" rx="5.48" ry="21.16" transform="rotate(-3.37 -731.89294067 915.6344414)"/>
  <ellipse cx="520.58" cy="196.79" fill="#2b2828" rx="5.71" ry="14.03" transform="rotate(-3.37 -733.0627176 914.91956887)"/>
  <ellipse cx="519.8" cy="196.84" class="cls-13" rx="3.23" ry="11.52" transform="rotate(-3.37 -733.91755826 915.064537)"/>
  <path fill="none" stroke="#0b2200" stroke-linecap="round" stroke-linejoin="round" stroke-width="6.86" d="M603.61 140.95s25.51 22.17 14.92 54.35"/>
  <path d="M538.89 420.07s-3.37 8.09 2.68 9.39 7.89-5.46 7.89-5.46l1 7.16-3.07 4.58-2.55 4.46s-1.35-5.51-3.91-5.84-4.78 5.31-4.78 5.31l-4.1-7.88 2.53-7.84z" class="cls-3" transform="translate(-44.39 -72.44)"/>
  <path d="M552.09 222.14s20.61 3.72 21.86 8.62c6-9.1 15.46-18.31 19.38-22.08s-.52-7.18-3-7.4c0 0-4.67 2.23-12.2.78l-7.25 4.49 2.67 6.29 6.48-8.51s4 2.37-7.49 12.46l.24 4s9.32-10.19 16.42-12.1c-4.59 4.17-11.14 10.58-15.58 18.94-2.18-2.02-9.62-6.11-21.53-5.49z" class="cls-11" transform="translate(-44.39 -72.44)"/>
  <path fill="#fff" d="M527.37 134.48l2.01 4.12 5.17-6.75-1.02-.82-6.16 3.45z"/>
  <path d="M687.58 211.05S770.65 240.61 750 350.4c-9.17-39.47-24-102.85-62.42-139.35z" class="cls-9" transform="translate(-44.39 -72.44)"/>
  <path d="M798 274.39l35.93-10.1v21.33s266.08-14.6 354.77 174c0 0-57.26-80.83-186.37-113.39 60.63 25.82 174 83.08 198.72 205.46 3.37 15.71 20.21 159.42-131.36 202.08C1036 766.13 935 776.23 882.18 756c3.09 5.33 49.4 24.69 101.61 27.22-41.26 4.21-112-3.37-158.3-10.1-24.42-1.69-89.26-7.58-89.26-7.58l160.83-27.79S1131.14 758 1146.3 623.27c0 0 12.63-65.68-11-101.89 21.05 20.21 42.94 46.31 42.94 46.31s-6.73-56.41-119.56-143.14c-16.84-34.52-25.26-48-25.26-48h-37.84S940.84 310 871 319.3c-17.73-15.16-46.64-37.61-73-44.91z" class="cls-16" transform="translate(-44.39 -72.44)"/>
  <path d="M214.72 631.26l-26.89 3.67L182.48 800l-29 4 5.21-165.11-26.69 3.66.85-28.35 26.64-3.63 29.21-4 26.91-3.67zM313.83 589.53L310.36 687l-.09 2.74-.93 25.61-.09 2.49-2.38 65.16-29.07 4 2.72-76.34 8.94-1.22-.5-.18-8.27-3.57-23.8-10.36-3.31 95-29.06 4 3.78-111.4.09-2.74.85-25.61.09-2.49 1.67-51.27 29.23-4-2.23 67.4 23.84 10.36 2.81-81.07zM414.42 575.83l-1.08 28.35-1.22 31.58-29.21 4 1.19-31.58-24.36 3.32-1.45 39.29 29.07 12.6-1.18 30.84-29-12.61-2.51 66.64 24.26-3.32v-1.24l.22-5.47v-.75l.11-2.73.12-3 .87-22.62.09-2.49 28.52 12.18-.61 15.42-.27 6.71-.35 8.95-.77 19.4-29.1 4-24.24 3.32-29.08 4 1.06-28.35 2.89-78.58 7.68-1-7.52-3.18-7.27-3.21.1-2.73.92-25.62.09-2.48 7.28 3 .83-22.88 1-28.34 29.25-4 24.38-3.32zM534.92 619.26l1.34-31.83-24.39 3.32-5.73 136.77 24.29-3.32 2.28-53 .51-11.93.81-19.15 28.52 12.43-.12 2.73-1.12 25.62-.11 2.48-1.62 36.8-1.25 28.35-29.13 4-24.27 3.32-29.12 4L477 731.5l5.61-136.76 1.14-28.35 29.29-4 24.41-3.32 29.3-4-1.22 28.35-1.37 31.83zM667.54 541.4l-1.3 28.35-1.45 31.58-29.27 4 1.48-31.6-24.41 3.32-1.75 39.29 29 12.61-1.41 30.83-29-12.6-3 66.64 24.31-3.32.06-1.25.25-5.47v-.74l.13-2.74.14-3 1-22.63.11-2.49 28.46 12.18-.73 15.42-.31 6.71-.42 9-.92 19.39-29.15 4-24.29 3.32-29.15 4 1.27-28.35 3.48-78.57 7.69-1.05-7.46-3.23-7.26-3.22.12-2.73 1.12-25.61.12-2.44 7.27 3 1-22.88 1.23-28.35 29.31-4 24.43-3.32zM759.08 671l-.77 15.41-.34 6.72-.44 9-1 19.39-29.18 4-24.31 3.32-29.16 4 1.35-28.34 2.9-61.42.81-17.16.19-4.23 1-21.38L683 539.3l29.33-4-7.87 165.11 24.33-3.32.06-1.24.27-5.47v-.75l.13-2.73.15-3 1.1-22.63.12-2.48zM863.29 543l-27 3.67-8.52 165.11-29.2 4 8.38-165.11-26.76 3.64 1.39-28.35 26.78-3.64 29.37-4 27-3.67zM963.47 501.24l-1.54 28.35-1.76 32.08-29.34 4 1.73-32.08-24.47 3.33-2.08 39 52.12 22.78v1l-.1 1.74-1.42 25.62-.13 2.48-2 36.81-1.59 28.34-29.22 4-24.45 3.31-29.22 4 1.52-28.35 2.48-47.5 29.28-4-2.56 47.49 24.37-3.32 2.62-48 9-1.23-.5-.17-8.21-3.55-52.1-22.78.11-2v-.74l1.35-25.62.13-2.48 1.19-22.88 1.48-28.35 29.38-4 24.49-3.32z" class="cls-17" transform="translate(-44.39 -72.44)"/>
  <g clip-path="url(#clip-path)">
    <path d="M884 479.05c19.26-5.71 36.63-17.18 46.36-35.19 5.88-10.87 6.95-22.67 1.64-34-4.6-9.77-12.18-17.58-19-25.83-5.72-7-16.25-19.16-11.73-28.9.27-.59 1.37-.53 1.24.25-1.95 12.13 7.78 22.6 15.07 31.18 6.93 8.16 14.17 16.44 17.8 26.68 7.16 20.18-6.27 40.71-21.72 52.89-8.57 6.76-18.74 11.83-29.55 13.58a.35.35 0 0 1-.11-.66z" class="cls-19" transform="translate(-44.39 -72.44)"/>
    <path d="M895.43 429.92c9-3.43 19.05 2.35 22.48 10.92 4 10.1 0 23.15-9.3 28.89-.43.27-.8-.37-.48-.7 6.29-6.41 10.83-14.51 9-23.79-1.65-8.38-9.79-16.05-18.79-13.75-8.29 2.12-13 12.14-6.67 18.89 3.15 3.37 9.34 4.34 12.44.27A5.06 5.06 0 0 0 904 444c-1.42-1.52-4.12-2.43-5.48-.14a5.33 5.33 0 0 0-.5 3.13c.12 2.36-3.63 2.17-3.69-.21-.09-3.88 4.4-6.72 8-6a7.24 7.24 0 0 1 5.43 8.45c-.73 4.24-4.66 7-8.78 7.29a12.37 12.37 0 0 1-10.79-5.52c-5.4-7.81-1.29-17.84 7.24-21.08zM920.81 405.34c9.06-1.34 13.42 8.15 15.49 15.31.09.29-.36.44-.49.18-1.08-2.21-2.8-7.18-7.22-10.6-3.19-2.47-9.3-3.53-12.71-.11s-3 9.95.7 13a8.55 8.55 0 0 0 7.81 1.38c.68-.22 3.21-1 3.94-3.16a3 3 0 0 0 0-2.18c-.65-1.57-2.92-2.37-3.64-1.76a.76.76 0 0 0-.25.45 2.23 2.23 0 0 1 .23 1.35 2.2 2.2 0 0 1-.88 1.46 2.27 2.27 0 0 1-3.49-2.26 2.56 2.56 0 0 1 .8-1.54c2.2-4.28 10.33-1.09 8.31 4.7-2.27 6.53-12.72 5.14-16 .42-4.5-6.37-.05-15.54 7.4-16.64zM928.72 379.8c5.1-3.93 13.37-3.2 16.19 3.14 2.14 4.83-.85 11.71-6.51 12.11a5.34 5.34 0 0 1-4.45-1.61c-1.9-2.27-.93-6.34 1-7.63a2.52 2.52 0 0 1 1.92-.44 2.09 2.09 0 0 1 1.54 1.53 1.87 1.87 0 0 1-.62 1.85 1.94 1.94 0 0 1-1.46.29 3 3 0 0 1-1.58-.69 2.68 2.68 0 0 0-.52.59 3 3 0 0 0-.41 2 3.18 3.18 0 0 0 .67 1.67 3.43 3.43 0 0 0 1.86 1.12 5.66 5.66 0 0 0 4.09-.59 6.52 6.52 0 0 0 3.12-5.31c.16-4.2-4.12-7.19-8-7.09-8.55.22-10.65 11.14-8.39 17.57.09.24-.28.33-.4.14-3.77-6.01-4.17-13.92 1.95-18.65zM895.29 380.57c3.61-6.16 13.31-6.28 16.36.55a.26.26 0 0 1-.42.29c-2.06-2.12-5.39-4.4-9.22-4.28-3 .09-6.23 3.57-6.15 6.89a6.25 6.25 0 0 0 1.56 3.76c.36.44 2.51 3 5.72 2.65a6.28 6.28 0 0 0 4-2.12 3.43 3.43 0 0 0 1.12-2.36c-.22-1.85-3.17-2.93-4.7-2.42 1.57 1.23-.09 4.29-2.13 2.93s.52-4.36 2.32-4.61c2.62-.37 5.84 1.93 6.52 4.4.83 3-1.49 5.5-4.22 6.29-7.46 2.14-15.11-4.54-10.76-11.97zM910.38 361.09c5.1-1.18 11 2.92 11 7.6 0 3.95-4.38 8.21-8 7.37a5.76 5.76 0 0 1-4.12-5.57c.07-1.5.93-3.35 2.37-3.89a2.32 2.32 0 0 1 1.81 0 1.72 1.72 0 0 1 .33 2.89 1.91 1.91 0 0 1-1.77.28 3.18 3.18 0 0 0-.31 3.23 3.23 3.23 0 0 0 3.39 1.31c2.62-.52 4.68-4.75 3.61-7.59-1.35-3.55-7.72-5.14-11.2-2.31-2.76 2.25-2.44 6.29-2.39 6.74a1 1 0 0 1-.34.32s-.18.1-.2.07c-2.03-4.48 1.17-9.37 5.82-10.45zM932.2 457.23c1.49-2.2 4.67-4.24 7.76-3.73a7.44 7.44 0 0 1 3.26 1.47 6.8 6.8 0 0 1 2.43 3.51 4.31 4.31 0 0 1 .12 1.7 2.5 2.5 0 0 1-.86 1.82 1.88 1.88 0 0 1-1.78.21 1.8 1.8 0 0 1 .27-3.44 4.54 4.54 0 0 0-1.48-3.43 4.32 4.32 0 0 0-2.83-1 5.39 5.39 0 0 0-4.9 3.52 7 7 0 0 0 2.93 8.37c5.84 3.89 12.76-.78 15.68-6.08 3.23-5.89 2.74-13.15-2.49-17.66a12.85 12.85 0 0 0-17.67.88c-.34.36-.82-.21-.5-.56a13.61 13.61 0 0 1 17.56-2.43 17.13 17.13 0 0 1 6.88 18.28c-1.91 7-8.84 13.3-16.46 12.32-6.37-.78-12-7.68-7.92-13.75z" class="cls-19" transform="translate(-44.39 -72.44)"/>
    <path d="M946.54 414.2c5.94 2.05 11.12 7.58 9 14.28-1.57 5.07-8.33 8.46-12.67 4.41a7.07 7.07 0 0 1-2.18-6.72 4.61 4.61 0 0 1 1.65-2.58 4.68 4.68 0 0 1 3.2-.84A2.33 2.33 0 0 1 948 424a1.87 1.87 0 0 1-.08 1.57 1.75 1.75 0 0 1-3.2-1.37 3.83 3.83 0 0 0-1.75 1.92 4.52 4.52 0 0 0 2.17 5.16c4.29 2.13 8.2-2 8.18-6.15 0-9-14.52-15.46-17.16-4.6 0 .06-.09 0-.1 0-1.41-5.87 6.34-7.75 10.48-6.33z" class="cls-19" transform="translate(-44.39 -72.44)"/>
  </g>
  <g clip-path="url(#clip-path-2)">
    <path d="M813.64 421.69c-9.59-11.32-28.38-12.07-37.65.12-10 13.16-.26 36.45 17.92 29.8 5.6-2.05 3.46-10.34-2.48-9-9.69 2.17-12.16-10.11-6.4-16 4-4 10-4.62 15.3-4 15.09 1.88 19.06 20.2 12.78 32.11-6.38 12.13-20.36 18.13-33.55 18.54-16.1.51-30.16-6.93-43.68-14.68-9-5.15-21.56-9.43-32.31-8.25-1.67-1.13-3.38-2.2-5.07-3.19-18.09-10.61-41.66-14-59.41-.88a69.86 69.86 0 0 0-8.64-3c-21.22-5.68-45.78-2.31-62.67 12.28-.22.19.06.56.31.41 17.34-10.61 37.78-15 57.6-9.26a65.28 65.28 0 0 1 9 3.38c-11 11.22-16 29.95-6.38 43.59 11.17 15.9 35.9 13.39 40.93-6 4.74-18.3-11.17-32.63-27.28-40.14 17.51-12.68 41.36-8.23 58.65 3.29-7.54 1.64-13.84 6.41-16.83 16.1-5.39 17.53 15.92 34.69 30.91 22 5.72-4.82 6.05-15 3.65-21.64a28.3 28.3 0 0 0-5.68-9.26c20.63-1 39 14.75 59.38 17.14 15.15 1.77 31.77-2.21 41.47-14.83 8.38-10.8 9.29-27.81.13-38.63zM656.49 491.2c-8.73 8.72-20.81-1.56-24.88-10.12-4.71-9.91-1.24-21.76 5.88-29.52a57.07 57.07 0 0 1 13.39 9.66c6.96 6.84 14.35 21.27 5.61 29.98zm60-16.59c-1.67 4.78-9.87 9.29-14.7 8.56a10.32 10.32 0 0 1-8.36-13.52c2.32-6.9 9.66-10.37 16.42-11.28 4.24 4.27 8.65 10.46 6.64 16.24zM321.6 460.44c9.69 12.62 26.31 16.6 41.47 14.83 20.38-2.39 38.74-18.14 59.38-17.14a28.32 28.32 0 0 0-5.69 9.26c-2.39 6.65-2.07 16.82 3.65 21.64 15 12.64 36.3-4.52 30.91-22-3-9.69-9.29-14.46-16.83-16.1 17.29-11.52 41.15-16 58.66-3.29-16.11 7.51-32 21.84-27.28 40.14 5 19.42 29.76 21.93 40.93 6 9.57-13.64 4.62-32.37-6.38-43.59a65.28 65.28 0 0 1 9-3.38c19.81-5.78 40.25-1.35 57.59 9.26.25.15.54-.22.32-.41-16.89-14.59-41.45-18-62.67-12.28a69.3 69.3 0 0 0-8.64 3c-17.76-13.12-41.33-9.73-59.41.88-1.7 1-3.4 2.06-5.07 3.19-10.75-1.18-23.32 3.1-32.31 8.25-13.52 7.75-27.58 15.19-43.69 14.68-13.18-.41-27.16-6.41-33.55-18.54-6.27-11.91-2.3-30.23 12.78-32.11 5.31-.66 11.36 0 15.3 4 5.77 5.85 3.3 18.13-6.39 16-5.94-1.33-8.09 7-2.49 9 18.19 6.65 27.93-16.64 17.92-29.8-9.27-12.19-28.05-11.44-37.65-.12-9.17 10.7-8.25 27.71.14 38.63zm162.62.78a56.86 56.86 0 0 1 13.39-9.66c7.12 7.76 10.59 19.61 5.88 29.52-4.07 8.56-16.15 18.84-24.89 10.12s-1.34-23.14 5.62-29.98zm-59-2.85c6.77.91 14.11 4.38 16.42 11.28a10.3 10.3 0 0 1-8.35 13.52c-4.83.73-13-3.78-14.7-8.56-2-5.78 2.41-11.97 6.65-16.24z" class="cls-21" transform="translate(-44.39 -72.44)"/>
  </g>
  <path d="M1004.33 461.07l-4.5 4.47 6.39 6.4-1.89-10.87z" class="cls-13"/>
  <path d="M1113.6 578.47A57.44 57.44 0 0 0 1123 566l5.3 5.31 1.69-3.2a64.74 64.74 0 0 0 0-60.32l-1.7-3.2L1123 510a57.24 57.24 0 0 0-21.87-21.87l5.34-5.33-3.19-1.7a64.76 64.76 0 0 0-60.33 0l-3.2 1.69 5.31 5.3a57.48 57.48 0 0 0-21.85 21.91l-5.3-5.31-1.7 3.21a64.77 64.77 0 0 0 0 60.32l1.7 3.19 5.32-5.33a57.61 57.61 0 0 0 21.87 21.87l-5.33 5.32 3.19 1.7a64.79 64.79 0 0 0 60.33 0l3.2-1.69-5.31-5.31a57.44 57.44 0 0 0 12.42-9.5zm-18.25-7.4a40.54 40.54 0 0 0 10.85-10.84l7.43 7.42 1.79-2.79q1.27-2 2.36-4.09l1.32 1.32a52 52 0 0 1-21.88 21.91l-1.33-1.32q2.1-1.08 4.1-2.36l2.79-1.78zm-3.35 15.27a53.78 53.78 0 0 1-5.25 1.74l-1.43-1.43a50.23 50.23 0 0 0 5.31-1.67zm-15.63-8.64a38.72 38.72 0 0 0 6-1l4 4a43.29 43.29 0 0 1-5.61 1.37zm-2.43 5.12h-1.7l.85-.85zm-14.18-2.05l4-4a41.26 41.26 0 0 0 6 1l-4.45 4.44a43.54 43.54 0 0 1-5.52-1.44zm1.11 5.87l-1.44 1.43a51.16 51.16 0 0 1-5.25-1.73l1.38-1.38a50.29 50.29 0 0 0 5.34 1.68zm7.51-14.48l4.71-4.71 4.71 4.71a35.37 35.37 0 0 1-9.39 0zm12-5l1.76-1.76 4.36 4.37q-1.26.54-2.55 1zm7.75 7.75c.81-.34 1.62-.7 2.42-1.09l3.65 3.67c-.76.41-1.54.8-2.32 1.17zm29.12-44.66l-4.44 4.45a40.16 40.16 0 0 0-1-6l4-4a43.54 43.54 0 0 1 1.46 5.56zm2.82-9.8l1.37-1.37a47.46 47.46 0 0 1 1.74 5.25l-1.44 1.43a48.68 48.68 0 0 0-1.65-5.3zm-12.8 22.24l-4.71-4.71 4.7-4.71a35 35 0 0 1 .03 9.43zm-5 2.57l3.57 3.57c-.28.86-.6 1.71-1 2.56l-4.37-4.37zm10.53-4l4.45 4.46a44.1 44.1 0 0 1-1.37 5.61l-4-4a41.61 41.61 0 0 0 .95-6.06zm4.27-3.28l.84-.84v1.69zm-3.31 18.78c-.36.79-.75 1.56-1.17 2.33l-3.66-3.66c.39-.8.75-1.6 1.08-2.42zm8-6.55l1.42 1.43a50.37 50.37 0 0 1-1.73 5.25l-1.37-1.36a50.46 50.46 0 0 0 1.7-5.31zm10.4-12.21a59.93 59.93 0 0 1-5.24 24.39l-1.37-1.37a56.21 56.21 0 0 0 3.21-9.53l.35-1.45-6.16-6.17a49.77 49.77 0 0 0 0-11.7l6.17-6.16-.35-1.46a57.3 57.3 0 0 0-3.21-9.52l1.4-1.4a59.15 59.15 0 0 1 5.2 24.37zm-29.86-7.25l-1.76-1.77 4.36-4.37c.36.84.68 1.7 1 2.57zm7.7-7.75c-.34-.83-.7-1.64-1.09-2.44l3.65-3.65c.42.77.81 1.55 1.18 2.34zm-12.82-31a52.16 52.16 0 0 1 21.88 21.88l-1.33 1.33c-.73-1.41-1.52-2.79-2.38-4.12l-1.79-2.79-7.42 7.42a40.79 40.79 0 0 0-10.8-10.8l7.43-7.42-2.8-1.79c-1.33-.86-2.71-1.65-4.12-2.38zm-5.32 5.32c.79.37 1.57.76 2.34 1.18l-3.65 3.65c-.8-.39-1.61-.75-2.44-1.09zm-7.93 7.91c.87.29 1.73.61 2.57 1l-4.37 4.36-1.76-1.76zm-35.21-21.05a59.93 59.93 0 0 1 24.39-5.24 59.31 59.31 0 0 1 24.37 5.21l-1.4 1.4a57 57 0 0 0-9.52-3.21l-1.46-.35-6.16 6.17a49.77 49.77 0 0 0-11.7 0l-6.17-6.16-1.45.35a57.1 57.1 0 0 0-9.53 3.21zM1029 545.73l4.44-4.45a40 40 0 0 0 1 6l-4 4a43.54 43.54 0 0 1-1.44-5.55zm-2.82 9.8l-1.38 1.38a51.16 51.16 0 0 1-1.73-5.25l1.43-1.44a49.56 49.56 0 0 0 1.66 5.31zm12.8-22.24l4.71 4.71-4.71 4.71a35.37 35.37 0 0 1 .02-9.42zm5-2.56l-3.57-3.58q.42-1.29 1-2.55l4.37 4.36zm-10.53 4l-4.45-4.45a43.29 43.29 0 0 1 1.37-5.61l4 4a40.15 40.15 0 0 0-.95 6.05zm-4.27 3.28l-.84.85v-1.69zm3.31-18.78c.36-.78.75-1.56 1.16-2.32l3.67 3.65c-.39.8-.75 1.61-1.09 2.42zm23.22-17.06l-3.71-3.67c.76-.42 1.53-.81 2.32-1.17l3.75 3.75c-.79.33-1.59.69-2.39 1.08zm4.11-7a43.54 43.54 0 0 1 5.6-1.37l4.46 4.45a40.3 40.3 0 0 0-6 1zm12.49-2h1.7l-.85.84zm-10 12.07l3.57 3.57-1.76 1.76-4.37-4.37c.82-.35 1.67-.66 2.53-.95zm6.14-1.42a35 35 0 0 1 9.42 0l-4.71 4.7zm8-5.54l4.45-4.44a43.54 43.54 0 0 1 5.6 1.37l-4 4a40.16 40.16 0 0 0-6.09-.92zm8.94-8.93l1.44-1.44a51.22 51.22 0 0 1 5.25 1.74l-1.38 1.37a48.68 48.68 0 0 0-5.35-1.66zm-24.45 0a49.56 49.56 0 0 0-5.31 1.68l-1.37-1.37a50.37 50.37 0 0 1 5.25-1.73zM1049 492l1.33 1.32c-1.41.72-2.77 1.51-4.1 2.36l-2.79 1.79 7.43 7.43a39.6 39.6 0 0 0-6 4.91 40.58 40.58 0 0 0-4.9 5.94l-7.43-7.43-1.79 2.79q-1.27 2-2.36 4.1l-1.32-1.33A52.16 52.16 0 0 1 1049 492zm-24.56 33.75l-1.43-1.43a53.78 53.78 0 0 1 1.74-5.25l1.36 1.37a52.67 52.67 0 0 0-1.64 5.33zM1014.09 538a59.75 59.75 0 0 1 5.24-24.38l1.37 1.36a56.54 56.54 0 0 0-3.22 9.53l-.35 1.45 6.17 6.17a49.39 49.39 0 0 0-.3 5.87 51.75 51.75 0 0 0 .34 5.85l-6.16 6.17.35 1.45a57.41 57.41 0 0 0 3.21 9.53l-1.4 1.4a59.23 59.23 0 0 1-5.25-24.4zm29.86 7.26l1.76 1.76-4.37 4.38c-.35-.85-.67-1.71-1-2.57zm-7.74 7.75c.33.82.7 1.63 1.09 2.43l-3.65 3.66c-.42-.77-.81-1.56-1.18-2.35zM1049 584a52 52 0 0 1-21.88-21.88l1.33-1.33c.73 1.41 1.52 2.79 2.37 4.12l1.8 2.8 7.42-7.43a40 40 0 0 0 10.8 10.8l-7.43 7.43 2.8 1.79c1.33.85 2.71 1.64 4.12 2.37zm5.32-5.32c-.79-.37-1.58-.76-2.35-1.18l3.66-3.65c.8.39 1.61.76 2.44 1.09zm7.92-7.91c-.86-.29-1.72-.61-2.56-1l4.37-4.37 1.76 1.76zm10.85-3.84l-9-9-9.34 9.33a34.57 34.57 0 0 1-10.81-10.81l9.33-9.34-9-9 9-9-9.34-9.33a34.23 34.23 0 0 1 4.81-6 34.7 34.7 0 0 1 6-4.81l9.33 9.35 9-9.05 9 9 9.34-9.33a34.57 34.57 0 0 1 10.81 10.81L1093 529l9 9-9 9 9.35 9.33a34.7 34.7 0 0 1-4.81 6 34.23 34.23 0 0 1-6 4.81l-9.33-9.34zm24.36 24.89a59.49 59.49 0 0 1-48.76 0l1.4-1.4a56.51 56.51 0 0 0 9.53 3.21l1.45.35 6.17-6.16a50.5 50.5 0 0 0 11.7 0l6.17 6.17 1.45-.35a56.54 56.54 0 0 0 9.53-3.22z" class="cls-3" transform="translate(-44.39 -72.44)"/>
  <path d="M1073.12 609.7a71.19 71.19 0 0 1-41.93-13.54l-2.54-1.83 5.18-5.18a68.24 68.24 0 0 1-11.59-11.54l-5.18 5.19-1.84-2.52a71.69 71.69 0 0 1-.07-84.48l1.84-2.52 5.25 5.25a68.24 68.24 0 0 1 11.59-11.53l-5.26-5.26 2.54-1.84a71.69 71.69 0 0 1 84.12.07l2.53 1.84-5.19 5.19a67.88 67.88 0 0 1 11.58 11.54l5.17-5.17 1.84 2.53a71.68 71.68 0 0 1-.22 84.51l-1.84 2.51-5.29-5.3a67.88 67.88 0 0 1-11.59 11.54l5.27 5.26-2.55 1.84a71.21 71.21 0 0 1-41.82 13.44zm-36.2-16.08a66.37 66.37 0 0 0 72.29.07l-5.25-5.25 2.69-1.81a61.81 61.81 0 0 0 14.61-14.63l1.81-2.68 5.36 5.35a66.38 66.38 0 0 0 .2-73.07l-5.21 5.2-1.81-2.69a62.09 62.09 0 0 0-14.61-14.6l-2.69-1.81 5.2-5.2a66.33 66.33 0 0 0-72.68-.06l5.26 5.26-2.69 1.81a62.09 62.09 0 0 0-14.61 14.61l-1.81 2.69-5.3-5.29a66.38 66.38 0 0 0 .06 73l5.24-5.23 1.81 2.68a62 62 0 0 0 14.61 14.62l2.69 1.81z" class="cls-3" transform="translate(-44.39 -72.44)"/>
  <path d="M565.81 499.27a11.44 11.44 0 0 1-2.7 9.75c-2.34 2.59-5.83 4.21-10.44 4.86l-2 .28-.75 11.59-9.09 1.25 2.44-35 8.67-1.21q6-.84 9.6 1.35a9.26 9.26 0 0 1 4.27 7.13zm-14.55 7.22l1.46-.2a4.57 4.57 0 0 0 3.23-1.84 4.86 4.86 0 0 0 .82-3.63 3 3 0 0 0-1.15-2.09 3.16 3.16 0 0 0-2.42-.52l-1.37.19zM588.77 513.83l-10.41 1.46-2 6.77-9.43 1.32L579.45 487l11.69-1.63 7.6 33.57-8.85 1.24zm-8.1-6.26l6.81-.95-1.77-9.8-.33-2q-.24-1.74-.33-3.06a26.18 26.18 0 0 1-.88 4.06zM630 493a25.91 25.91 0 0 1-.72 11.6 16.61 16.61 0 0 1-5.66 8.24 20.6 20.6 0 0 1-10 4l-10.94 1.53 2.43-35 9.67-1.35q6.42-.9 10.4 2T630 493zm-16.09 16.11a7.15 7.15 0 0 0 4.34-2.27 10.52 10.52 0 0 0 2.48-5.07 19.91 19.91 0 0 0 .16-7 6.79 6.79 0 0 0-1.87-4.23 4.38 4.38 0 0 0-3.72-1l-1.65.23-1.34 19.59zM662.56 488.48a26 26 0 0 1-.73 11.6 16.62 16.62 0 0 1-5.66 8.25 20.61 20.61 0 0 1-10 4l-10.94 1.53 2.43-35 9.67-1.35q6.41-.9 10.4 2t4.83 8.97zm-16.09 16.11a7.17 7.17 0 0 0 4.34-2.27 10.61 10.61 0 0 0 2.48-5.07 19.92 19.92 0 0 0 .15-7 6.74 6.74 0 0 0-1.87-4.23 4.35 4.35 0 0 0-3.71-1l-1.65.23-1.34 19.59zM679.28 485.88l5.49-13.6 10.13-1.42-11.32 22.79-1 13.57-9.08 1.26.94-13.56-8.41-20 9.37-1.31zM733.85 475.8a11.41 11.41 0 0 1-2.7 9.74c-2.34 2.6-5.83 4.22-10.44 4.86l-2 .28-.75 11.6-9.09 1.27 2.44-35 8.66-1.21q6-.84 9.61 1.34a9.28 9.28 0 0 1 4.27 7.12zM719.3 483l1.46-.21A4.58 4.58 0 0 0 724 481a4.88 4.88 0 0 0 .82-3.64 3 3 0 0 0-1.15-2.09 3.13 3.13 0 0 0-2.42-.51l-1.37.19zM753.78 462.09q6-.84 9.89 2.14t4.7 9.16a27.6 27.6 0 0 1-.73 11.63 18.4 18.4 0 0 1-5.29 8.75 16.7 16.7 0 0 1-9.05 4q-6.25.88-10.14-2.11t-4.75-9.14a27 27 0 0 1 .81-11.66 18.62 18.62 0 0 1 5.42-8.77 17.12 17.12 0 0 1 9.14-4zm5.42 12.68a6.89 6.89 0 0 0-1.69-4 3.83 3.83 0 0 0-3.44-1 5.88 5.88 0 0 0-4 2.54 13.93 13.93 0 0 0-2.33 5.8 21.74 21.74 0 0 0-.17 7.15q.78 5.63 5.43 5a5.75 5.75 0 0 0 3.83-2.5 13.22 13.22 0 0 0 2.25-5.63 22.81 22.81 0 0 0 .12-7.36zM783 484.81l.59-2.55 1.44-5.7 5.28-19 7.8-1.09 2.57 18.41a46.59 46.59 0 0 1 .43 7.43c.09-.46.75-3.28 2-8.48l4.57-18.69 9-1.25-10 36-10.72 1.5-2-14.41q-.51-3.6-.75-7.57a68.4 68.4 0 0 1-1.61 8.49l-3.95 14.65L777.5 494l-5.89-33.82 8.6-1.2 2.15 17.02a68 68 0 0 1 .64 8.81zM838.27 485.47l-20.18 2.82 2.44-35 20.17-2.82-.48 7.58-11.09 1.55-.34 5.5 10.32-1.45-.65 7.6-10.32 1.45-.42 6.6 11.08-1.55zM854.83 470.55l-.9 12.73-9.09 1.27 2.44-35 9-1.25q5.85-.82 9.29 1.07c2.3 1.26 3.66 3.44 4.1 6.56a12 12 0 0 1-.77 6.55 10.54 10.54 0 0 1-4.33 4.8l6.88 11.26 1.24 2.1-9.9 1.39-6.26-11.73zm.5-7.1l1.18-.17a4.81 4.81 0 0 0 3.33-1.76 4.75 4.75 0 0 0 .81-3.72 2.89 2.89 0 0 0-1.11-2.09 3.37 3.37 0 0 0-2.44-.43l-1.23.18z" class="cls-16" transform="translate(-44.39 -72.44)"/>
  <path d="M515.09 166.49s42.64-27.38 113.17-11.41 79.85 25.95 97.15 14.64c4.66 9.31 4.66 25.28 4.66 25.28l-.67 11.31-196.95-28.61z" class="cls-3" transform="translate(-44.39 -72.44)"/>
  <path d="M526 173.88l14.63-4.5s-6.64 13.8-8.88 40.46c1.25-13.12.25-29.65-5.75-35.96zM678 177.52c-3.21-.52-80.18-37.38-132.29-9.71 0 0-6.7 18.3-.21 30.52 9.4-8.45 12.82-12.3 12.82-12.3l-1.52-1.79s52.32-20.47 94.59-1.76" class="cls-6" transform="translate(-44.39 -72.44)"/>
  <path d="M722 179.81s6.34 9.76 3.57 46.66c-2.24-9.63-66.2-41.37-74.19-44 21.23-5.49 24.14-6.06 24.14-6.06s14.65 8.22 46.48 3.4z" class="cls-6" transform="translate(-44.39 -72.44)"/>
  <path d="M566.15 182.67s.39-24.92 16.76-27.45 18.41 19.94 11.62 21.55c0 0-13.7 6.84-14.93-6.64.23-5.13 3-7.59 7.36-7.79s8.4 7.28 1.44 8.71M638.49 180.53s-3.32-24.7-19.87-25.29-15.94 22-9 22.76c0 0 14.41 5.19 14-8.34-.83-5.08-3.87-7.19-8.22-6.87s-7.4 8.21-.4 8.81M651.9 190.58s10.57-22.57 26.53-18.17 8.62 25.74 1.77 24.42c0 0-15.3.63-10.9-12.17 2.31-4.6 5.85-5.7 9.9-4.09s4.69 10.08-2.25 8.53" class="cls-22" transform="translate(-44.39 -72.44)"/>
  <path d="M722.62 222.85s8.7-29.26-9.5-38.23-28.83 16.55-21.49 20.91c0 0 13.49 13 19.88-2.27 1.62-6.08-.72-10-5.73-11.8s-12.49 5.41-4.88 9.64" class="cls-22" transform="translate(-44.39 -72.44)"/>
  <circle cx="606.21" cy="96.16" r="7.71" class="cls-22"/>
  <path d="M606.21 96.16v.01-.01z" class="cls-22"/>
  <circle cx="509.41" cy="95.49" r="7.71" class="cls-22"/>
  <rect height=".01" x="553.8" y="167.92" class="cls-22" transform="rotate(-48.37 450.9283021 181.13398814)"/>
  <path d="M659.54 348.18l-14.86 21.51s-33.72 46.36-21.3 65.87c12-2.49 35.93-6.65 35.93-6.65L658 398.3s-16 0-16 12c.45-14.64 19.08-31 19.08-31l3.1-27.5zM595 367.7s5.77 12 5.77 17.29c4.44-12.42 15.53-33.26 15.53-33.26S602.09 369 595 367.7zM520.26 441.39s-16.42-49.08 38.14-53.07c-25.95 21.29-39.4 40.02-38.14 53.07zM592.33 390.32s-68.53 46.57-56.55 91.16c20-31.28 61.88-30.61 61.88-30.61s-14.66-2.66-5.33-60.55z" class="cls-5" transform="translate(-44.39 -72.44)"/>
  <path d="M249.2 756.78l-15.16 37.05 67.36-40.42-52.2 3.37z" class="cls-16"/>
</svg>
